<?xml version="1.0" encoding="iso-8859-1"?>
<!-- Generator: Adobe Illustrator 19.0.0, SVG Export Plug-In . SVG Version: 6.00 Build 0)  -->
<svg version="1.1" id="Layer_1" xmlns="http://www.w3.org/2000/svg" xmlns:xlink="http://www.w3.org/1999/xlink" x="0px" y="0px"
	 viewBox="0 0 511.999 511.999" style="enable-background:new 0 0 511.999 511.999;" xml:space="preserve">
<g>
	<path style="fill:#EFCA83;" d="M207.366,498.613c-12.093,0-21.931-9.838-21.931-21.931V350.979h43.862v125.703
		C229.297,488.774,219.459,498.613,207.366,498.613z"/>
	<path style="fill:#EFCA83;" d="M312.081,213.617l-32.265-40.198c-7.116-8.866-17.152-14.985-28.258-17.23l-9.185-2.055
		l-23.983-0.018v46.797l22.913-0.61l27.724,35.579c8.184,10.527,12.691,23.664,12.691,36.992v21.941
		c0,12.093,9.838,21.931,21.931,21.931c12.093,0,21.931-9.838,21.931-21.931v-42.81
		C325.581,238.097,320.787,224.463,312.081,213.617z"/>
	<path style="fill:#EFCA83;" d="M108.17,154.133l-9.185,2.055c-11.107,2.246-21.143,8.365-28.259,17.23l-32.263,40.198
		c-8.705,10.847-13.499,24.479-13.499,38.387v42.81c0,12.093,9.838,21.931,21.931,21.931s21.931-9.838,21.931-21.931v-21.941
		c0-13.328,4.505-26.463,12.681-36.977l27.735-35.594l37.849-0.668v-45.52L108.17,154.133z"/>
</g>
<path style="fill:#EABB71;" d="M50.202,294.813v-42.81c0-13.908,4.794-27.54,13.499-38.387l32.263-40.198
	c7.116-8.867,17.152-14.985,28.259-17.23l9.185-2.055l13.681-0.006v-0.012l-38.919,0.018l-9.185,2.055
	c-11.107,2.246-21.143,8.365-28.259,17.23l-32.263,40.198c-8.705,10.847-13.499,24.479-13.499,38.387v42.81
	c0,12.093,9.838,21.931,21.931,21.931c4.699,0,9.046-1.499,12.62-4.025C53.891,308.745,50.202,302.207,50.202,294.813z"/>
<path style="fill:#EFCA83;" d="M143.177,498.613c-12.093,0-21.931-9.838-21.931-21.931V350.979h43.862v125.703
	C165.109,488.774,155.271,498.613,143.177,498.613z"/>
<g>
	<path style="fill:#EABB71;" d="M211.279,476.682V350.979h-25.843v125.703c0,12.093,9.838,21.931,21.931,21.931
		c4.834,0,9.292-1.591,12.921-4.25C214.838,490.368,211.279,483.94,211.279,476.682z"/>
	<path style="fill:#EABB71;" d="M147.09,476.682V350.979h-25.843v125.703c0,12.093,9.838,21.931,21.931,21.931
		c4.834,0,9.292-1.591,12.921-4.25C150.649,490.368,147.09,483.94,147.09,476.682z"/>
</g>
<path style="fill:#00767A;" d="M82.702,368.073l25.469-73.351v-140.59h134.202v140.59l25.469,73.351
	c2.185,6.292-2.487,12.859-9.148,12.859H91.849C85.189,380.933,80.517,374.365,82.702,368.073z"/>
<path style="fill:#01665A;" d="M107.486,368.073l25.469-73.351v-140.59h-24.784v140.59l-25.469,73.351
	c-2.185,6.292,2.487,12.86,9.148,12.86h24.784C109.974,380.933,105.302,374.365,107.486,368.073z"/>
<circle style="fill:#EFCA83;" cx="175.268" cy="101.899" r="66.101"/>
<path style="fill:#EABB71;" d="M134.746,101.895c0-32.13,22.928-58.895,53.312-64.853c-4.138-0.812-8.412-1.247-12.787-1.247
	c-36.506,0-66.101,29.594-66.101,66.101s29.594,66.101,66.101,66.101c4.377,0,8.649-0.425,12.787-1.236
	C157.674,160.802,134.746,134.026,134.746,101.895z"/>
<path style="fill:#77767F;" d="M125.118,46.513c-1.386-3.284-2.089-6.752-2.089-10.306c0-14.613,11.888-26.5,26.5-26.5
	c11.113,0,21.122,7.037,24.91,17.512l11.564,32.468l-48.936,17.996L125.118,46.513z"/>
<path style="fill:#898790;" d="M240.979,94.73c-3.573-33.135-31.624-58.936-65.708-58.936s-62.135,25.801-65.708,58.936h67.42
	c0.217,0,0.419-0.107,0.542-0.286l8.081-11.813c0.262-0.383,0.828-0.381,1.087,0.004l7.947,11.805
	c0.122,0.181,0.326,0.29,0.545,0.29h45.794V94.73z"/>
<path style="fill:#77767F;" d="M188.249,37.078c-4.197-0.836-8.534-1.284-12.977-1.284c-34.084,0-62.135,25.801-65.708,58.936
	h25.955C138.625,65.915,160.248,42.655,188.249,37.078z"/>
<g>
	<path style="fill:#EFCA83;" d="M404.13,500.151c-11.306,0-20.504-9.198-20.504-20.504v-57.353h41.008v57.353
		C424.634,490.954,415.435,500.151,404.13,500.151z"/>
	<path style="fill:#EFCA83;" d="M444.069,500.151c-11.306,0-20.505-9.198-20.505-20.504v-57.353h41.009v57.353
		C464.573,490.954,455.375,500.151,444.069,500.151z"/>
</g>
<g>
	<path style="fill:#EABB71;" d="M409.18,479.647v-57.353h-25.555v57.353c0,11.306,9.198,20.504,20.504,20.504
		c4.831,0,9.27-1.689,12.778-4.495C412.206,491.895,409.18,486.123,409.18,479.647z"/>
	<path style="fill:#EABB71;" d="M449.118,479.647v-57.353h-25.555v57.353c0,11.306,9.199,20.504,20.505,20.504
		c4.831,0,9.269-1.689,12.778-4.495C452.144,491.895,449.118,486.123,449.118,479.647z"/>
</g>
<g>
	<path style="fill:#EFCA83;" d="M484.534,352.64h-21.03h-29.362v39.971h29.362v33.785c0,11.306,9.198,20.505,20.504,20.505
		s20.504-9.198,20.504-20.505v-53.779C504.511,361.602,495.549,352.64,484.534,352.64z"/>
	<path style="fill:#EFCA83;" d="M382.988,352.277L358.02,306.3l-0.209-0.277c-4.253-5.629-11.013-8.991-18.084-8.991
		c-4.84,0-9.462,1.513-13.364,4.372c-4.876,3.571-8.07,8.832-8.993,14.814c-0.922,5.981,0.536,11.959,4.062,16.771l66.477,96.511
		c0.275,0.928,0.429,1.45,0.429,1.45h55.102v-78.576L382.988,352.277z"/>
</g>
<path style="fill:#EABB71;" d="M345.292,332.99c-3.526-4.812-4.984-10.79-4.062-16.771c0.923-5.981,4.118-11.243,8.993-14.814
	c0.466-0.341,0.944-0.661,1.429-0.964c-3.546-2.189-7.678-3.408-11.925-3.408c-4.84,0-9.462,1.513-13.364,4.372
	c-4.876,3.571-8.07,8.832-8.993,14.814c-0.922,5.981,0.536,11.959,4.062,16.771l66.477,96.511c0.275,0.928,0.429,1.45,0.429,1.45
	h23.86c0,0-0.155-0.522-0.429-1.45L345.292,332.99z"/>
<path style="fill:#FE5022;" d="M381.537,445.707l1.451-93.43l83.725,0.363v93.119c0,1.812-1.469,3.281-3.281,3.281h-78.612
	C382.986,449.04,381.509,447.539,381.537,445.707z"/>
<path style="fill:#FF3501;" d="M405.899,445.707l1.449-93.325l-24.361-0.106l-1.451,93.43c-0.029,1.832,1.449,3.332,3.281,3.332
	h24.362C407.349,449.04,405.871,447.539,405.899,445.707z"/>
<path style="fill:#EFCA83;" d="M424.099,329.223c-23.497,0-42.613-19.116-42.613-42.613c0-23.497,19.115-42.614,42.613-42.614
	s42.614,19.117,42.614,42.614S447.596,329.223,424.099,329.223z"/>
<path style="fill:#EABB71;" d="M398.147,302.179c0-23.497,19.115-42.614,42.613-42.614c7.104,0,13.795,1.748,19.691,4.835
	c-7.497-12.233-20.984-20.404-36.352-20.404c-23.497,0-42.613,19.117-42.613,42.614c0,16.394,9.311,30.646,22.918,37.77
	C400.438,317.911,398.147,310.307,398.147,302.179z"/>
<path d="M424.099,334.572c26.447,0,47.963-21.516,47.963-47.962c0-26.447-21.516-47.963-47.963-47.963
	c-26.447,0-47.962,21.516-47.962,47.963C376.137,313.056,397.652,334.572,424.099,334.572z M424.099,254.695
	c17.598,0,31.916,14.317,31.916,31.916c0,17.597-14.317,31.915-31.916,31.915c-17.597,0-31.915-14.317-31.915-31.915
	C392.184,269.013,406.501,254.695,424.099,254.695z"/>
<path d="M484.534,345.151h-96.048l-27.433-41.692c-0.074-0.112-0.152-0.223-0.231-0.332c-6.565-8.962-17.497-12.875-27.752-10.965
	v-40.161c0-15.605-5.379-30.903-15.149-43.075l-32.265-40.197c-10.721-13.357-26.691-21.018-43.818-21.018H231.32
	c10.097-12.424,16.164-28.247,16.164-45.467c0-37.952-29.435-69.137-66.671-71.978C177.923,15.01,164.12,3.564,147.855,4.402
	c-15.666,0.807-28.622,13.227-30.04,28.851c-0.643,7.081,1.041,13.963,4.676,19.785c-12.041,12.907-19.431,30.207-19.431,49.209
	c0,17.22,6.067,33.043,16.164,45.467h-10.518c-17.128,0-33.098,7.661-43.818,21.018l-32.263,40.197
	c-9.77,12.17-15.149,27.467-15.149,43.075v30.914C6.458,289.947,0,302.062,0,316.21v181.532c0,4.394,3.386,8.225,7.778,8.356
	c4.543,0.136,8.27-3.507,8.27-8.02V316.21c0-4.633,1.005-8.747,2.903-12.21c3.868,11.736,14.929,20.233,27.944,20.233
	c11.6,0,21.651-6.751,26.438-16.528c1.008,2.67,1.55,5.528,1.554,8.462c0.005,3.35,1.967,6.446,5.127,7.558
	c5.65,1.988,10.921-2.149,10.921-7.517c0-12.016-5.32-23.298-14.595-30.954c-0.009-0.006-0.017-0.012-0.025-0.018v-12.365
	c0-11.672,3.945-23.174,11.104-32.381l13.264-17.022v22.962c0,4.431,3.592,8.024,8.024,8.024l0,0c4.431,0,8.024-3.592,8.024-8.024
	v-82.67h20.77c10.997,6.777,23.934,10.698,37.773,10.698c13.839,0,26.776-3.921,37.773-10.698h20.769v131.052
	c0,0.895,0.151,1.786,0.444,2.632l26.017,74.93H90.268l26.017-74.93c0.293-0.846,0.444-1.736,0.444-2.632v-9.299
	c0-4.431-3.592-8.024-8.024-8.024l0,0c-4.431,0-8.024,3.592-8.024,8.024v7.945l-26.589,76.575
	c-1.842,5.307-0.31,11.359,4.165,15.134c2.589,2.183,5.941,3.253,9.327,3.253h26.173v87.634c0,16.008,12.528,29.557,28.528,30.033
	c16.627,0.494,30.312-12.888,30.312-29.407v-88.26h5.349v87.634c0,16.008,12.528,29.557,28.528,30.033
	c16.627,0.494,30.312-12.888,30.312-29.407v-88.26h26.177c3.385,0,6.734-1.07,9.321-3.251c4.475-3.773,6.007-9.827,4.165-15.136
	l-26.589-76.575V223.47l13.259,17.015c7.163,9.214,11.11,20.717,11.11,32.388v21.347c0,14.225,9.888,26.798,23.858,29.481
	c4.334,0.832,8.52,0.652,12.416-0.282c0.594,4.449,2.266,8.816,5.081,12.694l60.553,87.91v55.039
	c0,15.379,12.155,28.327,27.532,28.576c7.997,0.129,15.248-3.116,20.43-8.398c5.183,5.282,12.434,8.527,20.431,8.398
	c15.376-0.249,27.532-13.197,27.532-28.576v-27.356c4.028,1.909,8.579,2.888,13.376,2.648c14.998-0.753,26.562-13.578,26.562-28.594
	v-53.142C512,357.448,499.702,345.151,484.534,345.151z M100.681,197.361l-25.927,33.273c-9.342,12.016-14.487,27.016-14.487,42.237
	v21.941c0,7.374-5.998,13.373-13.373,13.373s-13.373-5.998-13.373-13.373v-42.81c0-11.968,4.125-23.697,11.615-33.031L77.4,178.774
	c5.951-7.415,14.172-12.357,23.281-14.2V197.361z M149.529,20.406c6.833,0,12.649,4.367,14.849,10.451
	c-10.759,1.635-20.746,5.652-29.404,11.495c-0.812-1.922-1.247-4.002-1.247-6.145C133.727,27.495,140.815,20.406,149.529,20.406z
	 M175.272,46.082c24.406,0,45.217,15.652,52.945,37.443h-26.589l-5.515-11.03c-1.934-3.866-5.82-6.268-10.142-6.268
	c-0.001,0-0.002,0-0.002,0c-4.323,0-8.21,2.404-10.141,6.268l-5.515,11.029h-47.985C130.055,61.734,150.866,46.082,175.272,46.082z
	 M175.272,158.412c-30.969,0-56.165-25.195-56.165-56.165c0-0.896,0.026-1.788,0.067-2.675h56.098c3.039,0,5.818-1.717,7.176-4.435
	l3.522-7.043l3.522,7.043c1.36,2.718,4.137,4.435,7.176,4.435h34.702c0.042,0.887,0.067,1.778,0.067,2.675
	C231.437,133.216,206.241,158.412,175.272,158.412z M156.55,476.682c0,7.374-5.998,13.373-13.373,13.373
	c-7.374,0-13.373-5.998-13.373-13.373v-88.26h26.745V476.682z M220.739,476.682c0,7.374-5.998,13.373-13.373,13.373
	s-13.373-5.998-13.373-13.373v-88.26h26.745V476.682z M317.022,294.813c0,7.374-5.998,13.373-13.373,13.373
	c-7.374,0-13.373-5.998-13.373-13.373v-21.941c0-15.22-5.146-30.221-14.494-42.245l-25.922-33.267v-32.784
	c9.109,1.842,17.329,6.785,23.281,14.2l32.263,40.197c7.491,9.334,11.616,21.064,11.616,33.031V294.813z M376.137,395.733
	l-47.398-68.811c-0.044-0.064-0.09-0.127-0.135-0.19c-3.893-5.314-2.738-12.803,2.577-16.695c5.265-3.859,12.669-2.757,16.591,2.436
	l28.365,43.107V395.733z M416.075,479.647c0,6.587-5.359,11.946-11.946,11.946s-11.946-5.359-11.946-11.946v-25.258h23.891V479.647z
	 M456.015,479.647c0,6.587-5.359,11.946-11.946,11.946h-0.001c-6.587,0-11.946-5.359-11.946-11.946v-25.258h23.892L456.015,479.647
	L456.015,479.647z M456.015,438.342h-63.83v-77.143h63.83V438.342z M495.953,426.395c0,6.587-5.359,11.947-11.946,11.947
	s-11.946-5.359-11.946-11.947v-65.197h12.472c6.297,0,11.419,5.122,11.419,11.419L495.953,426.395L495.953,426.395z"/>
<g>
</g>
<g>
</g>
<g>
</g>
<g>
</g>
<g>
</g>
<g>
</g>
<g>
</g>
<g>
</g>
<g>
</g>
<g>
</g>
<g>
</g>
<g>
</g>
<g>
</g>
<g>
</g>
<g>
</g>
</svg>
