<?xml version="1.0" encoding="iso-8859-1"?>
<!-- Generator: Adobe Illustrator 19.0.0, SVG Export Plug-In . SVG Version: 6.00 Build 0)  -->
<svg version="1.1" id="Layer_1" xmlns="http://www.w3.org/2000/svg" xmlns:xlink="http://www.w3.org/1999/xlink" x="0px" y="0px"
	 viewBox="0 0 512 512" style="enable-background:new 0 0 512 512;" xml:space="preserve">
<path style="fill:#083D77;" d="M127.696,504.455c-6.826,0-12.36-5.534-12.36-12.36v-72.382c0-41.482,32.432-75.702,73.834-77.904
	l5.898-0.315h121.867l5.898,0.315c41.402,2.202,73.834,36.422,73.834,77.904v72.382c0,6.826-5.534,12.36-12.36,12.36
	L127.696,504.455L127.696,504.455z"/>
<path style="fill:#05385E;" d="M324.3,341.925v-0.003c-0.489-0.036-0.974-0.088-1.467-0.114l-5.898-0.315H195.067l-5.898,0.315
	c-41.402,2.202-73.834,36.422-73.834,77.905v72.382c0,6.826,5.534,12.36,12.36,12.36h34.035v-57.695
	c0-20.744,8.115-39.663,21.406-53.674c7.963-8.396,21.339-8.593,29.446-0.335c11.839,12.059,28.312,19.551,46.506,19.551
	c24.462,0,45.808-13.543,56.962-33.521c3.57-6.393,10.435-10.239,17.757-10.239h29.521l5.898,0.315
	c3.23,0.171,6.397,0.561,9.507,1.11C365.59,354.095,346.265,343.506,324.3,341.925z"/>
<path style="fill:#D8A32E;" d="M323.419,504.455L121.584,387.927l4.373-7.484c0.531-0.909,1.112-1.852,1.776-2.884l0.362-0.552
	c0.541-0.824,1.079-1.613,1.633-2.392l0.306-0.431c2.834-3.93,6.049-7.614,9.563-10.96l4.672-4.446L396.59,504.455H323.419z"/>
<path style="fill:#E2AD66;" d="M190.788,268.51v30.718v21.446c0,35.957,29.254,65.213,65.213,65.213s65.213-29.255,65.213-65.213
	v-21.446V268.51H190.788z"/>
<path style="fill:#E0A353;" d="M272.852,358.777c-35.959,0-65.213-29.255-65.213-65.213v-21.446v-3.608h-16.852v30.718v21.445
	c0,35.957,29.254,65.213,65.213,65.213c29.082,0,53.77-19.138,62.152-45.477C306.412,351.767,290.44,358.777,272.852,358.777z"/>
<path style="fill:#EABB71;" d="M147.672,91.36v52.639v68.885c0,59.733,48.596,108.328,108.328,108.328
	s108.328-48.596,108.328-108.328V144V91.36H147.672z"/>
<path style="fill:#052E4C;" d="M370.557,29.696C339.949,15.412,299.265,7.545,256.001,7.545s-83.949,7.866-114.556,22.151
	c-30.292,14.137-47.667,33.761-47.667,53.841c0,19.092,15.071,37.307,42.439,51.292l11.456,6.479h216.657l11.456-6.48
	c27.368-13.985,42.439-32.2,42.439-51.291C418.224,63.457,400.849,43.833,370.557,29.696z"/>
<path style="fill:#03273D;" d="M324.554,72.369H191.138c-10.132,0-15.469-12.121-8.53-19.506
	c8.073-8.593,19.497-16.492,33.802-23.167c21.561-10.062,48.132-16.922,77.074-20.109c-12.144-1.337-24.695-2.042-37.483-2.042
	c-43.265,0-83.949,7.866-114.556,22.151c-30.292,14.137-47.667,33.761-47.667,53.841c0,19.092,15.071,37.307,42.439,51.292
	l11.456,6.479h74.965l-11.456-6.479c-23.672-12.096-38.135-27.359-41.611-43.615h154.984c5.204,0,9.422-4.219,9.422-9.422l0,0
	C333.975,76.587,329.758,72.369,324.554,72.369z"/>
<path style="fill:#D8A32E;" d="M256.001,62.41c-8.589,0-15.577-6.987-15.577-15.577s6.988-15.577,15.577-15.577
	c8.589,0,15.577,6.987,15.577,15.577S264.589,62.41,256.001,62.41z"/>
<path style="fill:#083D77;" d="M147.672,127.192v-26.743c0-9.623,7.829-17.451,17.452-17.451h181.752
	c9.623,0,17.452,7.829,17.452,17.451v26.743H147.672z"/>
<path style="fill:#E0A353;" d="M185.459,139.191v-12.488h-37.787v12.488v5.659v68.035c0,59.733,48.596,108.328,108.328,108.328
	c0.912,0,1.822-0.012,2.728-0.035c0.302-0.008,0.601-0.023,0.903-0.032c0.603-0.021,1.205-0.039,1.805-0.069
	c0.372-0.018,0.742-0.045,1.112-0.068c0.526-0.031,1.052-0.061,1.576-0.1c0.403-0.03,0.804-0.068,1.205-0.102
	c0.489-0.042,0.979-0.082,1.466-0.13c0.418-0.042,0.834-0.091,1.25-0.137c0.467-0.052,0.935-0.102,1.399-0.16
	c0.431-0.054,0.86-0.113,1.289-0.172c0.446-0.061,0.892-0.121,1.337-0.188c0.442-0.067,0.883-0.138,1.323-0.209
	c0.428-0.069,0.855-0.138,1.281-0.212c0.453-0.079,0.904-0.164,1.356-0.248c0.407-0.077,0.814-0.153,1.219-0.234
	c0.464-0.093,0.926-0.19,1.387-0.288c0.389-0.083,0.778-0.167,1.166-0.254c0.472-0.107,0.942-0.217,1.412-0.329
	c0.372-0.089,0.743-0.18,1.113-0.272c0.482-0.121,0.963-0.246,1.442-0.373c0.351-0.093,0.702-0.189,1.051-0.285
	c0.495-0.137,0.987-0.276,1.48-0.419c0.328-0.096,0.654-0.194,0.981-0.292c0.509-0.154,1.018-0.31,1.524-0.471
	c0.3-0.096,0.598-0.194,0.897-0.292c0.528-0.174,1.056-0.349,1.581-0.53c0.267-0.092,0.532-0.188,0.799-0.281
	c0.552-0.195,1.102-0.392,1.649-0.597c0.226-0.085,0.452-0.172,0.678-0.259c0.583-0.222,1.165-0.445,1.743-0.677
	c0.174-0.069,0.345-0.142,0.518-0.212c0.626-0.254,1.251-0.512,1.872-0.778c0.096-0.041,0.192-0.084,0.288-0.126
	c9.911-4.286,19.061-10.007,27.186-16.906c0.002-0.001,0.004-0.003,0.007-0.005c0.626-0.532,1.247-1.071,1.86-1.617
	c0.004-0.003,0.01-0.008,0.014-0.012c0.612-0.544,1.218-1.095,1.817-1.652c0.003-0.002,0.006-0.005,0.01-0.009
	c-11.337,3.999-23.529,6.169-36.225,6.135c-59.915-0.156-108.043-49.628-108.043-109.544l0,0c0-3.012,2.467-5.41,5.479-5.383
	c0.129,0.001,0.259,0.002,0.388,0.002h129.347c20.233,0,37.815-13.902,42.482-33.588l1.173-4.945v-5.659H185.459V139.191z"/>
<path style="fill:#052E4C;" d="M364.329,126.114H147.672v5.659l1.174,4.953c4.688,19.772,22.156,33.582,42.481,33.582h129.347
	c20.325,0,37.794-13.81,42.481-33.581l1.174-4.954V126.114z"/>
<path style="fill:#774923;" d="M320.306,256.587c-3.361-13.337-15.356-22.684-29.11-22.684h-32.86h-4.672h-32.86
	c-13.754,0-25.749,9.347-29.11,22.684l-1.89,7.497c-0.414,1.642,0.827,3.234,2.52,3.234h34.195c13.755,0,25.751-9.349,29.112-22.686
	l0.368-1.459l0.368,1.459c3.361,13.338,15.357,22.686,29.113,22.686h34.195c1.692,0,2.933-1.592,2.52-3.234L320.306,256.587z"/>
<path d="M291.194,226.358h-35.193h-35.193c-20.713,0-37.565,16.852-37.565,37.565v2.856c0,4.466,3.62,8.084,8.084,8.084h35.193
	c11.944,0,22.595-5.61,29.48-14.325c6.886,8.715,17.536,14.325,29.48,14.325h35.193c4.465,0,8.084-3.618,8.084-8.084v-2.856
	C328.758,243.21,311.908,226.358,291.194,226.358z M226.52,258.695h-26.463c2.338-9.28,10.755-16.168,20.749-16.168h26.463
	C244.932,251.806,236.515,258.695,226.52,258.695z M285.481,258.695c-9.995,0-18.412-6.889-20.749-16.168h26.463
	c9.995,0,18.412,6.889,20.749,16.168H285.481z"/>
<path d="M388.043,443.733v47.075l-124.098-71.649c0.088-0.479,0.14-0.97,0.14-1.475v-24.713
	c26.032-2.892,47.95-19.571,58.289-42.553c30.378,1.617,55.618,22.864,63.269,51.253c0.955,3.543,4.145,6.019,7.814,6.019l0,0
	c5.344,0,9.203-5.083,7.812-10.243c-9.088-33.691-38.281-59.218-73.862-62.854c0.877-4.508,1.351-9.159,1.351-13.92v-17.679
	c26.279-21.26,43.116-53.754,43.116-90.111v-67.816c34.802-15.717,53.895-37.434,53.895-61.532C425.769,36.694,351.198,0,256.001,0
	S86.232,36.694,86.232,83.537c0,24.097,19.093,45.816,53.895,61.532v67.816c0,36.356,16.837,68.851,43.116,90.111v17.679
	c0,4.761,0.473,9.411,1.351,13.92c-16.776,1.714-32.12,8.311-44.619,18.32c-0.178,0.122-0.362,0.231-0.532,0.369
	c-5.475,4.447-10.383,9.59-14.609,15.24l-0.704,0.942c-1.397,1.868-2.643,3.839-3.874,5.821c-0.031,0.051-0.064,0.101-0.095,0.153
	c-0.656,1.082-1.287,2.181-1.895,3.292c-0.092,0.166-0.181,0.333-0.272,0.5c-0.592,1.098-1.165,2.206-1.707,3.33
	c-0.057,0.119-0.111,0.239-0.168,0.359c-0.271,0.567-0.542,1.135-0.8,1.708c-0.068,0.15-0.122,0.303-0.18,0.455
	c-4.71,10.597-7.35,22.309-7.35,34.634v84.2c0,4.465,3.62,8.084,8.084,8.084h280.253c4.465,0,8.084-3.62,8.084-8.084v-60.183
	c0-4.465-3.62-8.084-8.084-8.084l0,0C391.662,435.648,388.043,439.267,388.043,443.733z M312.59,320.674
	c0,31.203-25.385,56.589-56.589,56.589s-56.589-25.387-56.589-56.589v-6.707c16.746,9.412,36.05,14.791,56.589,14.791
	s39.843-5.379,56.589-14.791V320.674z M355.706,118.568H156.295v-18.119c0-4.869,3.96-8.828,8.829-8.828h181.752
	c4.869,0,8.829,3.96,8.829,8.828V118.568z M354.764,134.737c-3.658,15.432-17.555,26.947-34.09,26.947H191.327
	c-16.535,0-30.431-11.515-34.09-26.947H354.764z M140.14,127.148c-24.144-12.335-37.739-27.884-37.739-43.612
	c0-16.591,15.56-33.366,42.69-46.027c29.49-13.763,68.879-21.341,110.91-21.341s81.42,7.579,110.91,21.341
	c27.13,12.661,42.69,29.436,42.69,46.027c0,15.726-13.596,31.275-37.739,43.612c0.001-0.166,0.013-0.33,0.013-0.496v-26.204
	c0-13.783-11.213-24.996-24.997-24.996H165.124c-13.784,0-24.997,11.213-24.997,24.996v26.204
	C140.127,126.819,140.138,126.984,140.14,127.148z M156.295,212.884v-48.943c9.166,8.617,21.489,13.911,35.032,13.911h129.347
	c13.543,0,25.865-5.296,35.032-13.911v48.943c0,54.978-44.727,99.705-99.705,99.705S156.295,267.862,156.295,212.884z
	 M189.627,350.419c10.34,22.981,32.257,39.66,58.289,42.553v16.934l-88.148-50.893C168.704,354.047,178.839,350.993,189.627,350.419
	z M247.916,471.579v24.253H123.958v-76.119c0-6.951,1.039-13.663,2.95-20l121.234,69.995
	C248,470.309,247.916,470.933,247.916,471.579z M264.085,495.832v-16.921l29.307,16.921H264.085z M325.728,495.832L133.417,384.801
	c0.136-0.232,0.264-0.47,0.403-0.7c0.137-0.227,0.275-0.455,0.415-0.681c0.471-0.764,0.954-1.521,1.454-2.266
	c0.061-0.092,0.12-0.184,0.181-0.276c0.594-0.876,1.208-1.74,1.841-2.587c0.056-0.075,0.115-0.15,0.172-0.225
	c0.6-0.798,1.217-1.583,1.851-2.355c0.053-0.065,0.106-0.129,0.158-0.193c1.762-2.128,3.661-4.137,5.66-6.041l218.856,126.354
	H325.728z"/>
<path d="M256.001,69.955c12.749,0,23.122-10.373,23.122-23.122s-10.373-23.122-23.122-23.122c-12.749,0-23.122,10.373-23.122,23.122
	S243.251,69.955,256.001,69.955z M256.001,39.88c3.834,0,6.953,3.119,6.953,6.953s-3.119,6.953-6.953,6.953
	s-6.954-3.119-6.954-6.953S252.166,39.88,256.001,39.88z"/>
<g>
</g>
<g>
</g>
<g>
</g>
<g>
</g>
<g>
</g>
<g>
</g>
<g>
</g>
<g>
</g>
<g>
</g>
<g>
</g>
<g>
</g>
<g>
</g>
<g>
</g>
<g>
</g>
<g>
</g>
</svg>
